<?xml version="1.0" standalone="no"?>
<!DOCTYPE svg PUBLIC "-//W3C//DTD SVG 20010904//EN"
 "http://www.w3.org/TR/2001/REC-SVG-20010904/DTD/svg10.dtd">
<svg version="1.0" xmlns="http://www.w3.org/2000/svg"
 width="218.000000pt" height="162.000000pt" viewBox="0 0 218.000000 162.000000"
 preserveAspectRatio="xMidYMid meet">
<metadata>
Created by potrace 1.10, written by Peter Selinger 2001-2011
</metadata>
<g transform="translate(0.000000,162.000000) scale(0.100000,-0.100000)"
fill="#000000" stroke="none">
<path d="M1110 1601 c-19 -4 -44 -12 -56 -19 -26 -14 -94 -88 -94 -103 0 -5
-4 -8 -9 -4 -6 3 -17 -5 -26 -17 -41 -58 -63 -97 -58 -101 2 -3 0 -21 -5 -41
-6 -20 -9 -36 -6 -36 4 0 34 67 38 85 4 17 35 74 45 79 5 4 0 -12 -11 -35 -10
-22 -17 -43 -15 -45 4 -5 64 93 79 129 4 9 12 17 18 17 5 0 20 12 33 26 12 14
31 31 42 36 20 11 20 11 0 -13 -11 -13 -26 -28 -32 -32 -7 -4 -13 -15 -13 -22
0 -8 -4 -15 -10 -15 -5 0 -17 -15 -26 -32 -19 -36 -82 -119 -101 -131 -16 -10
-46 -115 -37 -129 4 -6 3 -8 -2 -5 -6 3 -15 -8 -22 -25 -11 -31 -11 -31 8 -11
10 12 25 23 32 25 10 4 10 9 -2 23 -9 11 -10 16 -2 11 7 -4 12 -1 12 8 0 9 5
16 11 16 7 0 8 -11 4 -31 -7 -30 -6 -30 17 -18 12 6 25 15 28 18 8 10 104 41
127 41 12 0 24 4 28 9 7 13 -82 6 -98 -7 -19 -16 -128 -10 -122 6 3 8 5 20 5
27 0 7 6 15 14 18 10 4 13 -1 10 -16 -2 -12 4 1 14 28 16 45 20 50 46 48 26
-2 27 -1 11 11 -14 10 -15 15 -5 21 7 4 16 2 21 -6 4 -7 11 -10 16 -6 4 5 2
12 -5 16 -21 12 34 106 61 106 7 0 12 5 12 10 0 6 10 21 22 34 l22 23 -5 -23
c-2 -13 -2 -18 2 -11 3 6 12 12 19 12 7 0 15 5 17 10 2 7 10 6 21 -2 12 -9 19
-33 23 -83 3 -43 2 -65 -3 -57 -7 8 -9 1 -9 -23 1 -19 4 -35 9 -35 4 0 7 -5 7
-11 0 -6 -9 -8 -22 -3 -20 6 -21 5 -9 -9 7 -9 17 -14 22 -11 5 3 9 1 9 -5 0
-5 -6 -12 -12 -14 -10 -4 -9 -8 2 -17 12 -9 12 -13 2 -17 -10 -4 -10 -8 -1
-20 10 -11 10 -16 -1 -23 -10 -6 -9 -14 9 -36 20 -26 20 -28 4 -44 -10 -9 -24
-15 -32 -12 -10 4 -12 1 -6 -7 6 -10 2 -11 -16 -7 -21 6 -22 6 -6 -4 10 -7 28
-10 38 -7 17 5 18 3 8 -9 -10 -12 -9 -13 7 -7 16 6 17 5 6 -9 -11 -14 -10 -16
7 -11 17 4 20 0 19 -26 -1 -20 7 -39 20 -52 13 -12 22 -15 22 -7 0 9 3 9 11 1
26 -26 -41 -57 -91 -43 -23 7 -30 5 -30 -6 0 -8 -7 -14 -15 -14 -8 0 -14 5
-13 11 2 6 -3 14 -10 16 -8 3 -10 -2 -6 -14 5 -17 5 -17 -6 0 -15 23 -37 22
-52 -2 -8 -13 -16 -17 -23 -11 -8 7 -10 1 -7 -18 2 -17 -4 -35 -15 -49 l-20
-22 -24 39 c-13 22 -30 40 -36 40 -20 0 -15 -13 17 -48 28 -32 43 -59 18 -34
-7 7 -23 12 -36 12 -19 0 -23 4 -19 20 6 23 -19 48 -34 33 -14 -14 8 -60 32
-66 30 -8 23 -29 -8 -25 -32 3 -73 51 -73 82 0 12 9 35 20 53 25 42 79 58 128
38 19 -8 43 -15 54 -15 10 0 16 -4 13 -10 -3 -5 -2 -10 3 -10 12 0 37 30 26
30 -5 0 -2 5 6 10 12 8 8 10 -15 11 -16 1 -39 1 -50 0 -17 -2 -18 0 -5 9 25
17 -96 3 -136 -16 -20 -10 -39 -27 -43 -38 -13 -34 -20 -107 -10 -100 5 3 6
-1 4 -8 -3 -8 7 -21 24 -31 32 -19 91 -23 91 -6 0 5 4 8 9 5 17 -11 59 13 77
43 32 54 112 71 156 33 14 -12 25 -13 50 -4 l33 10 -32 1 c-49 2 -66 11 -52
27 8 10 15 11 25 3 9 -7 21 -6 43 5 16 9 38 16 47 16 16 0 16 -1 0 -19 -11
-13 -13 -20 -6 -23 10 -3 18 -37 23 -103 1 -11 6 -25 10 -32 10 -15 -3 -22
-27 -14 -14 5 -19 19 -21 53 -2 49 -10 68 -28 68 -7 0 -6 -4 3 -11 12 -8 9 -9
-12 -5 -27 6 -47 -7 -28 -19 6 -4 8 -11 5 -16 -4 -5 -1 -9 5 -9 6 0 9 -4 5 -9
-3 -5 5 -17 17 -26 19 -13 21 -17 8 -25 -20 -12 -6 -23 30 -22 16 0 30 -3 30
-8 0 -5 8 -11 18 -13 9 -2 2 -3 -16 -1 -28 2 -30 1 -18 -12 8 -8 20 -14 27
-14 9 0 8 -5 -3 -16 -20 -20 -50 -12 -42 11 3 8 1 15 -6 15 -6 0 -8 -4 -5 -10
3 -5 2 -10 -4 -10 -5 0 -13 5 -16 10 -10 16 -22 12 -28 -10 -5 -19 3 -24 30
-21 7 1 29 -7 50 -18 24 -13 31 -20 20 -21 -10 0 -16 -4 -13 -9 3 -5 -5 -8
-18 -7 -13 0 -22 5 -18 10 3 5 -2 6 -12 3 -9 -4 -15 -3 -12 1 2 4 -9 15 -25
24 -32 19 -37 17 -13 -6 8 -9 11 -16 5 -16 -5 0 -13 5 -16 10 -9 15 -25 12
-25 -5 0 -8 12 -17 28 -21 15 -3 53 -14 85 -23 31 -10 57 -15 58 -12 3 25 10
58 16 71 22 51 5 214 -32 300 -24 58 -50 123 -59 153 -4 13 -12 17 -26 12 -16
-5 -19 -3 -13 12 4 10 11 21 17 25 7 5 7 8 1 8 -6 0 -10 39 -9 103 3 147 -12
302 -32 332 -17 26 -37 29 -104 16z m-171 -387 c-17 -21 -31 -17 -17 5 7 11
16 17 20 14 5 -2 4 -11 -3 -19z m336 -397 c1 -14 -2 -24 -7 -21 -4 3 -6 10 -3
15 4 5 2 9 -3 9 -5 0 -9 7 -9 15 0 27 21 10 22 -18z"/>
<path d="M1120 1471 c0 -18 -4 -21 -20 -16 -11 4 -20 2 -20 -4 0 -15 31 -13
53 3 15 12 15 15 2 26 -13 10 -15 9 -15 -9z"/>
<path d="M35 1424 c-13 -14 -16 -28 -11 -60 8 -65 77 -212 130 -282 40 -53 52
-62 70 -57 11 4 44 8 71 10 l50 4 -49 -9 c-27 -5 -54 -14 -60 -21 -8 -9 -8
-10 2 -5 7 4 34 11 59 14 63 9 64 27 3 47 -51 17 -52 17 -71 -4 -11 -12 -24
-19 -30 -16 -16 10 -10 25 14 35 19 8 17 9 -15 9 -42 1 -46 22 -8 53 12 10 21
21 18 23 -7 8 -38 -6 -38 -16 0 -5 -7 -9 -15 -9 -25 0 -29 29 -9 53 19 22 19
22 -2 5 -20 -18 -21 -17 -43 37 -13 30 -27 53 -32 49 -5 -3 -6 2 -3 10 3 8 0
25 -7 38 -6 13 -8 20 -4 15 5 -4 16 5 26 19 l17 26 21 -21 c11 -11 23 -16 26
-11 4 6 12 10 18 10 9 0 9 -2 0 -8 -7 -4 -9 -13 -4 -21 5 -7 14 -10 20 -7 6 4
11 2 11 -3 0 -6 -13 -12 -30 -12 -59 -3 -68 -4 -76 -12 -4 -4 17 -7 47 -6 29
1 67 -4 82 -10 16 -6 33 -9 38 -5 5 3 9 1 9 -4 0 -5 10 -12 21 -15 18 -5 14 2
-17 35 -31 33 -34 37 -11 23 15 -9 27 -21 27 -26 0 -5 7 -9 15 -9 8 0 21 -13
29 -29 9 -16 22 -31 31 -35 9 -3 13 -10 10 -16 -4 -6 10 -33 30 -61 21 -27 35
-52 33 -55 -3 -2 -29 30 -59 71 -29 41 -54 75 -55 75 -1 0 -17 6 -36 14 -24
10 -38 12 -49 4 -12 -8 -11 -9 2 -5 9 3 22 1 30 -4 10 -6 11 -9 2 -10 -28 -3
-32 -4 -40 -13 -4 -4 11 -6 34 -3 29 3 46 0 54 -9 6 -8 8 -14 4 -14 -4 0 19
-27 50 -60 32 -32 61 -58 66 -57 4 1 14 -6 21 -16 13 -17 14 -17 14 4 0 12
-21 45 -49 75 -27 30 -46 58 -42 64 3 6 11 8 16 5 5 -4 9 4 9 16 0 17 -3 19
-14 10 -11 -9 -16 -9 -22 1 -4 7 -4 10 1 6 4 -4 14 0 21 10 7 9 14 12 14 5 0
-7 14 -9 42 -6 43 6 45 1 11 -38 -12 -14 -11 -17 6 -22 25 -6 31 0 32 32 0 16
3 20 6 11 15 -37 30 -38 42 -3 14 38 33 29 23 -10 -3 -14 -1 -18 6 -13 7 4 12
13 12 19 1 13 26 44 54 67 18 14 18 13 12 -8 -4 -12 -3 -22 2 -22 5 0 13 -10
17 -22 6 -20 8 -20 12 -5 2 9 11 17 19 17 8 0 14 5 14 10 0 6 -5 10 -11 10 -5
0 -7 5 -3 11 12 21 27 -9 27 -56 0 -56 20 -55 28 1 l5 39 12 -28 c7 -16 12
-37 12 -47 0 -10 5 -22 11 -26 7 -4 9 0 5 14 -4 11 -1 31 5 45 6 14 9 33 5 43
-6 16 -7 16 -20 -1 -9 -13 -15 -15 -20 -7 -10 17 -24 15 -29 -5 -4 -14 -5 -12
-6 5 -1 21 8 26 36 23 6 -1 15 3 18 9 5 8 11 6 19 -5 10 -14 12 -10 14 24 3
45 3 45 -30 32 -68 -26 -113 -34 -301 -51 -127 -12 -174 -5 -211 29 -23 20
-167 96 -202 106 -14 3 -28 -1 -39 -11z"/>
<path d="M1033 1390 c0 -24 2 -26 14 -14 12 12 12 16 0 28 -12 12 -14 10 -14
-14z"/>
<path d="M830 1351 c0 -11 5 -23 10 -26 6 -4 10 5 10 19 0 14 -4 26 -10 26 -5
0 -10 -9 -10 -19z"/>
<path d="M1075 1360 c-25 -11 1 -11 35 0 20 6 21 8 5 8 -11 0 -29 -3 -40 -8z"/>
<path d="M1130 1331 c0 -6 9 -15 20 -21 13 -7 20 -7 20 -1 0 6 -9 15 -20 21
-13 7 -20 7 -20 1z"/>
<path d="M161 1278 c-1 -20 13 -22 44 -7 17 8 16 9 -7 4 -16 -3 -28 0 -31 8
-3 7 -6 5 -6 -5z"/>
<path d="M841 1229 c-7 -22 -10 -43 -7 -46 2 -3 10 14 16 37 15 55 7 63 -9 9z"/>
<path d="M1104 1225 c16 -9 31 -13 34 -10 3 3 0 5 -7 5 -7 0 -10 4 -7 8 2 4
-7 9 -22 10 l-27 2 29 -15z"/>
<path d="M965 1196 c-21 -11 -50 -37 -64 -56 -20 -27 -21 -32 -6 -20 11 8 23
19 26 24 4 4 10 3 13 -3 5 -7 14 -6 30 4 20 13 28 13 72 0 66 -19 92 -16 92
10 0 22 -10 24 -59 11 -24 -7 -89 15 -89 29 0 2 31 3 70 1 59 -2 67 -1 52 10
-28 19 -95 14 -137 -10z m145 -46 c0 -5 -9 -10 -20 -10 -11 0 -20 5 -20 10 0
6 9 10 20 10 11 0 20 -4 20 -10z"/>
<path d="M386 1198 c3 -4 10 -8 15 -8 6 0 21 -12 35 -27 25 -27 25 -27 18 -4
-4 16 -3 21 5 17 6 -4 11 -2 11 4 0 7 -6 10 -14 7 -8 -3 -20 0 -26 8 -12 14
-52 17 -44 3z"/>
<path d="M487 1193 c-12 -12 -7 -33 8 -33 17 0 19 9 7 28 -5 7 -11 9 -15 5z"/>
<path d="M1147 1170 c-6 -22 0 -25 22 -11 7 5 10 14 7 20 -11 17 -23 13 -29
-9z"/>
<path d="M876 1165 c-9 -9 -16 -22 -16 -28 0 -6 10 -2 22 11 12 12 19 24 16
27 -3 3 -13 -1 -22 -10z"/>
<path d="M287 1149 c-9 -6 -15 -14 -12 -20 8 -12 -1 -11 -24 3 -15 9 -25 9
-43 0 -13 -7 -16 -11 -7 -8 9 2 34 -2 55 -9 51 -18 83 -20 66 -3 -19 19 -14
31 9 25 16 -4 18 -3 8 9 -13 16 -27 17 -52 3z"/>
<path d="M973 1133 c-7 -2 -13 -10 -13 -17 0 -7 -11 -19 -25 -26 -38 -20 -23
-23 21 -5 70 30 85 35 80 27 -2 -4 4 -8 15 -8 15 0 16 3 7 12 -15 14 -68 25
-85 17z"/>
<path d="M330 1115 c5 -6 7 -15 3 -18 -6 -6 10 -11 28 -9 4 1 15 -8 25 -20 17
-19 17 -21 2 -15 -12 4 -15 2 -11 -9 5 -14 7 -14 21 0 13 12 13 18 2 30 -7 9
-9 16 -5 16 5 0 0 8 -9 19 -19 21 -74 27 -56 6z"/>
<path d="M1013 1083 c0 -15 41 -16 72 -3 23 10 23 10 -31 14 -28 1 -41 -2 -41
-11z"/>
<path d="M309 1075 c42 -19 50 -19 25 0 -10 8 -28 14 -39 14 -14 0 -10 -4 14
-14z"/>
<path d="M1040 1050 c9 -4 31 -5 50 0 34 8 33 8 -15 9 -34 0 -45 -3 -35 -9z"/>
<path d="M363 1006 c13 -10 14 -15 6 -18 -9 -3 -7 -6 4 -11 10 -4 17 -2 17 6
0 16 -20 37 -34 37 -6 0 -3 -7 7 -14z"/>
<path d="M200 995 c0 -9 -13 -30 -29 -46 -73 -72 -97 -291 -37 -331 17 -11 23
-10 30 8 4 10 2 13 -7 9 -6 -4 -4 0 5 8 20 16 14 28 -10 21 -10 -3 -7 1 6 7
33 18 27 28 -13 19 -42 -10 -44 -6 -7 15 15 9 19 14 10 11 -10 -3 -18 -1 -18
4 0 13 23 13 36 0 6 -6 19 -4 38 5 16 8 35 15 42 15 8 0 14 7 14 15 0 21 44
19 66 -2 24 -25 135 -31 153 -9 10 12 11 19 2 30 -8 10 -9 16 -1 21 9 6 7 25
-6 77 -9 31 -94 34 -94 3 0 -12 4 -12 27 0 24 13 29 12 45 -5 24 -25 23 -30
-7 -30 -14 0 -25 -4 -25 -9 0 -16 -49 -9 -53 8 -3 9 -5 2 -6 -16 -1 -38 21
-63 57 -64 27 0 27 0 4 -11 -31 -16 -70 4 -87 45 -11 27 -15 29 -21 14 -5 -14
-9 -16 -15 -6 -6 10 -13 9 -31 -6 -13 -11 -20 -16 -16 -11 4 4 3 19 -2 32 -7
19 -6 24 5 24 8 0 15 -4 15 -10 0 -5 5 -10 10 -10 6 0 10 7 10 15 0 9 11 20
25 25 14 5 25 14 25 19 0 6 14 18 31 26 66 35 139 -19 139 -101 0 -47 14 -53
22 -10 6 30 -27 92 -64 119 -40 30 -181 33 -175 3 1 -7 -14 -10 -43 -9 l-45 1
43 -15 c50 -17 53 -27 13 -41 -22 -8 -28 -15 -24 -30 3 -14 -2 -21 -19 -26
l-23 -6 25 -15 25 -15 -30 6 c-16 3 -38 8 -47 11 -10 2 -18 0 -18 -6 0 -6 11
-11 24 -11 14 0 28 -4 31 -10 7 -11 -24 -13 -49 -4 -23 9 -20 44 3 44 11 0 23
4 26 10 4 6 -1 7 -11 3 -12 -4 -15 -3 -10 5 4 7 1 12 -8 12 -25 0 -19 30 12
60 16 14 26 32 24 38 -2 7 6 12 20 12 18 0 20 2 8 10 -12 8 -11 10 7 10 15 0
21 5 17 14 -8 20 12 29 65 28 37 0 42 1 23 9 -13 5 -39 5 -61 0 -22 -5 -45 -4
-55 1 -12 7 -16 5 -16 -7z m256 -190 c14 -13 13 -15 -3 -16 -14 0 -13 -2 6
-10 13 -5 21 -12 18 -15 -3 -3 -14 -1 -25 5 -10 5 -28 7 -40 4 -13 -3 -22 -1
-22 6 0 6 7 11 15 11 8 0 14 3 14 8 -4 26 15 30 37 7z"/>
<path d="M905 966 c-23 -18 -13 -21 16 -6 14 8 19 7 19 -1 0 -6 6 -9 13 -6 18
7 33 -14 32 -47 0 -16 6 -31 13 -33 18 -7 15 48 -6 74 -23 29 -62 38 -87 19z"/>
<path d="M371 959 c18 -11 52 -11 45 0 -3 5 -17 9 -32 9 -18 0 -22 -3 -13 -9z"/>
<path d="M760 675 c-7 -8 -26 -15 -42 -15 -23 0 -29 -4 -24 -16 3 -9 6 -21 6
-27 1 -8 5 -6 13 3 7 8 29 24 49 34 21 10 35 23 32 27 -8 13 -20 11 -34 -6z"/>
<path d="M568 638 c16 -16 75 -21 70 -6 -3 7 -22 13 -43 15 -27 1 -35 -1 -27
-9z"/>
<path d="M663 596 c4 -10 7 -22 7 -27 0 -5 5 -9 11 -9 15 0 7 43 -10 48 -10 3
-12 0 -8 -12z"/>
<path d="M1122 589 c4 -17 49 -32 61 -20 5 5 22 5 39 0 44 -12 49 -22 8 -15
-19 3 -8 -3 24 -14 45 -14 63 -16 73 -8 8 6 10 14 6 18 -14 13 -121 40 -150
39 -15 -1 -36 2 -46 6 -12 5 -17 3 -15 -6z"/>
<path d="M140 585 c0 -5 7 -32 15 -60 l15 -50 -5 44 c-5 39 -24 91 -25 66z"/>
<path d="M1097 552 c-13 -6 1 -16 59 -40 73 -32 78 -33 108 -18 34 16 37 15
-64 46 -70 21 -76 22 -103 12z m111 -43 c-15 -9 -51 8 -43 21 3 5 16 5 31 -2
17 -8 21 -14 12 -19z"/>
<path d="M1430 533 c0 -31 15 -43 51 -41 71 4 116 -3 135 -20 10 -10 30 -25
44 -35 24 -17 24 -17 2 -17 -12 0 -22 -5 -22 -11 0 -6 9 -8 20 -4 11 3 20 2
20 -3 0 -6 11 -13 25 -16 14 -4 23 -11 20 -16 -3 -6 -2 -10 4 -10 5 0 12 6 14
13 4 9 8 9 16 -3 5 -8 7 -18 5 -22 -3 -4 2 -5 10 -2 22 8 42 -6 25 -17 -10 -6
-6 -8 11 -7 19 2 26 -2 28 -20 3 -19 6 -21 18 -11 9 7 14 8 14 1 0 -6 -8 -16
-17 -21 -15 -9 -15 -12 -5 -19 8 -5 13 -12 13 -16 -3 -19 1 -19 14 -2 14 19
15 18 15 -10 0 -17 -4 -34 -9 -39 -6 -6 -1 -10 13 -10 36 0 47 18 31 49 -8 14
-11 26 -7 26 4 0 0 5 -8 10 -13 8 -13 11 -1 19 11 7 9 10 -8 16 -25 8 -45 40
-35 57 5 8 2 9 -10 5 -13 -5 -19 -1 -23 13 -3 11 -13 20 -23 20 -35 0 -140 63
-159 95 -20 34 -54 47 -168 60 -47 6 -53 5 -53 -12z"/>
<path d="M1139 494 c40 -19 79 -34 85 -34 6 0 -22 16 -61 35 -40 19 -78 35
-85 34 -7 0 20 -16 61 -35z"/>
<path d="M1065 500 c3 -6 -1 -13 -9 -16 -9 -3 -16 -11 -16 -16 0 -6 7 -7 16
-4 8 3 12 2 9 -4 -9 -14 8 -12 25 3 12 10 12 9 2 -4 -10 -14 -10 -18 4 -23 17
-7 37 1 30 13 -3 3 4 7 15 7 19 0 19 -1 -2 -17 l-22 -17 20 -6 c12 -4 36 0 55
7 l33 15 -78 36 c-85 39 -91 41 -82 26z"/>
<path d="M656 448 c-34 -68 -34 -104 -2 -110 22 -4 25 -1 28 33 2 20 0 35 -5
32 -7 -4 0 43 10 60 7 13 23 7 23 -9 0 -8 5 -12 11 -9 18 12 56 -4 62 -26 3
-11 15 -23 26 -26 12 -3 21 -12 21 -20 0 -8 5 -11 10 -8 6 4 8 10 5 15 -3 5
-1 11 5 15 6 4 8 11 4 16 -3 5 -10 7 -15 4 -5 -4 -9 1 -9 10 0 15 -109 75
-137 75 -6 0 -23 -23 -37 -52z"/>
<path d="M1462 461 c7 -11 18 -21 24 -21 6 0 17 -7 24 -15 7 -8 16 -12 21 -9
5 3 9 -2 9 -11 0 -12 5 -15 16 -11 9 3 17 6 20 6 2 0 1 7 -2 15 -4 8 -12 15
-20 15 -24 0 -15 20 9 21 20 1 -9 10 -86 26 -27 5 -28 4 -15 -16z"/>
<path d="M1055 423 c66 -53 95 -68 95 -50 0 7 -24 27 -52 44 -80 48 -99 51
-43 6z"/>
<path d="M187 432 c-3 -4 3 -18 12 -31 10 -13 21 -20 24 -15 3 5 -3 19 -13 32
-10 12 -21 19 -23 14z"/>
<path d="M964 428 c-3 -5 8 -24 25 -44 32 -36 41 -67 17 -58 -7 3 -21 20 -31
38 -17 31 -52 62 -61 54 -2 -2 1 -17 5 -34 5 -16 10 -23 10 -16 1 10 5 10 21
0 13 -9 18 -19 14 -32 -4 -13 -3 -16 6 -11 9 6 11 4 6 -4 -6 -9 -12 -8 -26 4
-17 15 -19 15 -24 -3 -4 -11 -14 -23 -22 -26 -8 -3 -12 -2 -9 4 3 6 2 10 -4
10 -5 0 -12 -8 -14 -17 -4 -17 -5 -17 -6 0 0 9 -8 17 -17 17 -11 0 -14 -6 -9
-22 11 -36 20 -40 51 -23 16 8 39 15 51 15 12 0 25 4 28 10 3 5 31 17 61 26
29 8 54 18 54 21 0 4 -7 15 -17 25 -9 10 -11 18 -5 18 6 0 15 -7 20 -16 5 -9
15 -15 23 -12 9 3 4 11 -16 23 -17 10 -40 27 -51 38 -24 20 -71 30 -80 15z
m86 -32 c22 -27 -5 -17 -31 10 -21 24 -22 26 -3 16 11 -6 26 -18 34 -26z"/>
<path d="M1496 399 c3 -5 12 -9 20 -9 12 0 13 -4 4 -21 -11 -19 -10 -20 10 -9
16 9 19 15 10 25 -12 15 -53 28 -44 14z"/>
<path d="M1600 399 c0 -5 -4 -8 -9 -4 -9 5 -61 -42 -61 -55 0 -3 11 -7 25 -8
26 -2 35 13 13 21 -7 2 -9 8 -5 13 5 5 12 2 17 -7 6 -11 18 -15 35 -11 34 6
32 22 -2 22 -25 1 -26 2 -10 14 19 15 22 26 7 26 -5 0 -10 -5 -10 -11z"/>
<path d="M760 381 c0 -12 5 -21 10 -21 6 0 10 6 10 14 0 8 -4 18 -10 21 -5 3
-10 -3 -10 -14z"/>
<path d="M871 378 c0 -22 1 -22 9 -3 7 16 9 12 9 -18 1 -21 5 -36 10 -33 5 4
8 14 6 24 -2 9 -4 25 -4 35 -1 9 -8 17 -16 17 -9 0 -15 -9 -14 -22z"/>
<path d="M777 334 c-3 -3 -1 -14 5 -24 9 -14 9 -24 1 -42 l-12 -23 -1 25 c-1
25 -1 24 -15 -5 l-13 -30 -1 32 c-1 17 5 33 12 36 6 2 10 7 7 10 -13 14 -28
-11 -34 -55 -7 -48 -7 -48 22 -48 16 0 35 7 42 15 7 9 21 13 30 10 26 -8 30
16 9 55 l-18 35 6 -37 c4 -25 2 -38 -6 -38 -6 0 -11 15 -11 33 0 34 -12 61
-23 51z"/>
<path d="M1950 289 c35 -33 56 -46 59 -38 5 16 -75 89 -98 89 -10 0 5 -20 39
-51z"/>
<path d="M240 305 c0 -36 29 -84 52 -85 3 0 -2 18 -13 40 -10 21 -19 43 -19
49 0 5 -4 13 -10 16 -6 4 -10 -5 -10 -20z"/>
<path d="M681 304 l-22 -26 20 -17 c28 -24 26 -32 -4 -27 -17 3 -25 0 -25 -10
0 -8 7 -14 15 -14 9 0 15 -9 15 -22 0 -14 4 -18 9 -12 13 12 31 95 20 88 -5
-3 -9 7 -9 23 0 22 2 25 10 13 5 -8 10 -10 10 -5 0 30 -17 34 -39 9z"/>
<path d="M174 306 c-18 -20 -28 -40 -16 -32 23 14 12 -3 -29 -44 -23 -23 -44
-39 -47 -35 -3 3 9 20 26 38 18 18 32 37 32 41 0 8 -28 -20 -75 -74 -17 -19
-17 -22 -3 -17 9 3 18 1 21 -6 2 -7 11 -2 23 12 10 13 37 42 59 63 21 22 40
45 41 52 2 16 -18 17 -32 2z"/>
<path d="M1573 301 c-1 -11 6 -22 15 -25 9 -3 -2 -4 -25 -3 -23 1 -39 -1 -37
-5 6 -9 56 -11 78 -2 20 8 21 24 1 24 -9 0 -12 6 -9 15 4 9 0 15 -8 15 -7 0
-14 -9 -15 -19z"/>
<path d="M1655 300 c-3 -6 -3 -19 0 -30 5 -15 15 -20 38 -19 l32 1 -32 9 c-24
7 -30 13 -26 29 6 21 -2 27 -12 10z"/>
<path d="M2017 232 c-3 -4 10 -23 29 -42 19 -19 34 -38 34 -42 0 -4 5 -8 10
-8 17 0 11 25 -10 38 -11 7 -20 17 -20 23 0 11 -24 39 -34 39 -3 0 -7 -3 -9
-8z"/>
<path d="M1607 224 c-11 -11 3 -24 25 -24 17 0 18 2 8 15 -13 16 -23 19 -33 9z"/>
<path d="M1687 223 c-4 -3 -7 -13 -7 -22 0 -13 2 -13 13 1 6 9 19 18 27 21 10
4 8 6 -6 6 -11 1 -24 -2 -27 -6z"/>
<path d="M1530 204 c0 -19 16 -31 48 -37 35 -7 39 -3 18 18 -16 17 -66 31 -66
19z"/>
<path d="M1775 200 c-30 -7 -30 -7 -5 -12 14 -3 6 -4 -18 -3 -24 1 -41 0 -38
-3 9 -9 96 -19 90 -11 -2 4 6 10 18 12 22 4 22 4 -2 7 l-25 2 25 8 c20 6 21 8
5 8 -11 0 -33 -4 -50 -8z"/>
<path d="M1635 180 c-3 -5 -1 -18 5 -27 11 -17 11 -17 6 0 -3 11 0 17 9 17 8
0 15 5 15 10 0 13 -27 13 -35 0z"/>
<path d="M304 127 c2 -32 7 -61 10 -64 10 -10 7 91 -4 107 -6 10 -8 -4 -6 -43z"/>
<path d="M1908 163 c-21 -5 -24 -23 -4 -23 8 0 17 -8 19 -17 4 -17 5 -17 6 -1
1 11 6 15 16 12 8 -4 15 -1 15 5 0 6 -8 11 -17 11 -15 0 -16 2 -3 10 13 9 13
10 0 9 -8 -1 -23 -3 -32 -6z"/>
<path d="M1560 141 c0 -5 7 -11 15 -15 9 -3 15 0 15 9 0 8 -7 15 -15 15 -8 0
-15 -4 -15 -9z"/>
<path d="M1599 125 c-1 -11 -2 -26 -2 -32 1 -17 -5 -16 -23 2 -16 16 -59 21
-50 6 3 -4 19 -14 35 -20 21 -9 27 -18 24 -32 -4 -14 -11 -17 -28 -13 -13 3
-25 2 -28 -3 -3 -4 9 -9 26 -9 17 -1 33 -6 34 -11 2 -6 15 -8 28 -5 14 2 23 8
20 12 -3 5 -13 6 -23 3 -12 -3 -19 1 -19 11 0 22 36 14 57 -14 11 -15 20 -19
24 -11 9 13 -2 33 -14 26 -5 -3 -11 -1 -15 5 -3 5 -1 10 6 10 8 0 8 4 -1 15
-18 21 -41 19 -33 -2 4 -11 2 -15 -3 -10 -10 10 -13 57 -4 57 3 0 12 -6 19
-12 10 -11 12 -10 9 5 -1 10 -7 17 -12 17 -5 -1 -13 4 -17 12 -7 10 -9 8 -10
-7z"/>
<path d="M2082 127 c-28 -16 -21 -26 13 -19 14 2 25 11 25 18 0 17 -8 17 -38
1z"/>
<path d="M1886 102 c-9 -14 8 -28 38 -30 l29 -2 -23 20 c-25 22 -36 25 -44 12z"/>
<path d="M2070 89 c-12 -8 -10 -9 8 -4 12 3 22 2 22 -3 0 -12 -24 -22 -52 -22
-28 0 -17 -24 13 -28 19 -2 21 -1 9 7 -12 9 -9 11 15 11 39 0 64 -15 40 -24
-9 -3 -31 -6 -47 -6 -47 0 -30 -7 36 -15 47 -5 57 -4 50 7 -5 7 -10 24 -10 38
-1 14 -2 30 -3 35 -1 15 -62 17 -81 4z"/>
<path d="M1939 41 c11 -7 10 -10 -5 -14 -17 -4 -17 -5 2 -6 12 0 24 6 28 14 4
11 -1 15 -17 15 -17 0 -19 -2 -8 -9z"/>
<path d="M295 27 c-4 -10 -5 -21 -1 -24 10 -10 18 4 13 24 -4 17 -4 17 -12 0z"/>
<path d="M1533 3 c9 -2 25 -2 35 0 9 3 1 5 -18 5 -19 0 -27 -2 -17 -5z"/>
</g>
</svg>
